<?xml version="1.0" standalone="no"?>
<!DOCTYPE svg PUBLIC "-//W3C//DTD SVG 1.1//EN" "http://www.w3.org/Graphics/SVG/1.1/DTD/svg11.dtd" >
<svg xmlns="http://www.w3.org/2000/svg">
<metadata>
This is a custom SVG webfont generated by Font Squirrel.
</metadata>
<defs>
<font id="webfontCykG2Qou" horiz-adv-x="551" >
<font-face units-per-em="1000" ascent="800" descent="-200" />
<missing-glyph horiz-adv-x="251" />
<glyph unicode=" "  horiz-adv-x="251" />
<glyph unicode="&#x09;" horiz-adv-x="251" />
<glyph unicode="&#xa0;" horiz-adv-x="251" />
<glyph unicode="!" horiz-adv-x="234" d="M170 188v455h-97v-455h97zM195 52l-72 72h-8l-72 -72l72 -72h8z" />
<glyph unicode="&#x22;" horiz-adv-x="259" d="M230 646h-85l10 -163h65zM113 646h-85l10 -163h65z" />
<glyph unicode="$" horiz-adv-x="478" d="M445 193q0 41 -12 71.5t-33.5 53.5t-49 40t-67.5 37l-21 9v157q42 -13 67 -68l82 50q-18 47 -57.5 75.5t-91.5 34.5v61h-35v-60q-70 -2 -114.5 -48t-44.5 -114q0 -34 11.5 -60t30.5 -45.5t41.5 -34t55.5 -30.5l20 -10v-232q-34 7 -61 34.5t-48 67.5l-86 -42 q20 -65 72.5 -105t122.5 -46v-56h35v56q40 2 74 19.5t58.5 45.5t37.5 64t13 75zM227 421q-28 15 -44 33t-16 44q0 27 18 46.5t42 21.5v-145zM345 188q0 -39 -24 -70.5t-59 -38.5v215q40 -21 61.5 -45.5t21.5 -60.5z" />
<glyph unicode="&#x26;" horiz-adv-x="641" d="M616 1l-147 168l69 114q37 60 41 67h-110l-67 -105l-89 102l16 8q37 20 67.5 62t30.5 91q0 31 -12.5 59t-35 49.5t-53 33.5t-65.5 12q-76 0 -127 -43.5t-51 -110.5q0 -14 6 -30.5t13.5 -30.5t13.5 -23t9 -13l34 -38l-15 -8q-44 -22 -80 -70.5t-36 -112.5 q0 -44 17.5 -79.5t48 -60t70.5 -37.5t85 -13q48 0 89 27t75 67l76 -85h127zM324 508q0 -25 -18.5 -47.5t-48.5 -37.5l-7 -3l-47 53q-4 7 -10 20.5t-6 24.5q0 26 23.5 42t50.5 16q25 0 44 -21t19 -47zM347 160q-25 -36 -49.5 -55t-59.5 -19q-40 0 -71 27.5t-31 69.5 q0 36 20.5 64t55.5 47l12 6z" />
<glyph unicode="'" horiz-adv-x="194" d="M143 646h-85l10 -163h65z" />
<glyph unicode="(" horiz-adv-x="247" d="M219 597l-28 95h-8q-62 -74 -93 -172t-31 -201t31 -198.5t94 -165.5h8l27 91q-37 53 -54.5 125t-17.5 145q0 75 18 150.5t54 130.5z" />
<glyph unicode=")" horiz-adv-x="290" d="M239 319q0 103 -31 201t-93 172h-8l-28 -95q36 -55 54 -130.5t18 -150.5q0 -73 -17.5 -145t-54.5 -125l27 -91h8q63 70 94 165.5t31 198.5z" />
<glyph unicode="," horiz-adv-x="232" d="M193 9q0 17 -3.5 25.5t-14.5 19.5l-52 52h-8l-72 -72l58 -54q0 -38 -11 -66.5t-40 -46.5v-22q24 5 50 22.5t47 42t33.5 51t12.5 48.5z" />
<glyph unicode="-" horiz-adv-x="406" d="M318 212v83h-232v-83h232z" />
<glyph unicode="." horiz-adv-x="247" d="M195 34l-72 72h-8l-72 -72l72 -71h8z" />
<glyph unicode="/" horiz-adv-x="347" d="M387 677h-100l-339 -706h100z" />
<glyph unicode="0" horiz-adv-x="504" d="M464 324q0 67 -14.5 125.5t-42 103t-67.5 69.5t-89 25q-47 0 -86.5 -25t-67.5 -69.5t-42.5 -103.5t-14.5 -125t14.5 -125t42.5 -103.5t67.5 -69.5t86.5 -25q48 0 88 25t67.5 69t42.5 103t15 126zM367 324q0 -48 -8 -91t-23.5 -76t-36.5 -51t-45 -18t-45 18t-36.5 51 t-24 76t-8.5 91q0 49 9 92t25 76t36.5 51t43.5 18t43.5 -18t36.5 -51t24.5 -76.5t8.5 -91.5z" />
<glyph unicode="1" horiz-adv-x="239" d="M171 1v646h-101v-646h101z" />
<glyph unicode="2" horiz-adv-x="522" d="M462 0v84h-231l180 287q2 4 6 14.5t9 26t8.5 32.5t3.5 31q0 83 -48.5 134.5t-146.5 51.5q-51 0 -99 -21.5t-79 -46.5v-127h8q29 40 74.5 69.5t95.5 29.5q36 0 62 -22t26 -58q0 -15 -6 -36t-13 -39t-13 -30t-9 -17l-230 -363h402z" />
<glyph unicode="3" horiz-adv-x="520" d="M472 645h-415v-87h257l-131 -232q39 0 68.5 -6t52.5 -21t36 -42.5t13 -68.5t-31.5 -70t-71.5 -29q-42 0 -75.5 24t-55.5 69h-8l-63 -68q3 -18 21 -39t45.5 -39.5t60.5 -30.5t66 -12q44 0 84.5 14.5t71.5 41.5t48 63.5t17 77.5q0 71 -37.5 129t-94.5 74z" />
<glyph unicode="4" horiz-adv-x="586" d="M563 179v90h-150v401h-8l-400 -491h309v-179h99v179h150zM312 269h-119l119 151v-151z" />
<glyph unicode="5" horiz-adv-x="470" d="M429 203q0 56 -20.5 98t-55 69t-76.5 40.5t-87 13.5l15 136h179l41 86h-309l-40 -333l18 5q11 3 25.5 6.5t30.5 6t28 2.5q27 0 53 -9.5t46.5 -26.5t33 -41t12.5 -52q0 -49 -32.5 -85t-77.5 -36q-33 0 -62.5 21t-46.5 52h-8l-56 -73q27 -39 69 -65.5t94 -26.5 q48 0 89.5 16t72 45t47.5 68t17 83z" />
<glyph unicode="6" horiz-adv-x="507" d="M478 202q0 39 -15 74.5t-42.5 62.5t-63.5 42.5t-77 15.5q-37 0 -63 -7t-53 -22q15 42 38 84t52 81t61.5 68.5t66.5 45.5h-128q-33 -23 -69 -63t-68.5 -94.5t-53 -120t-20.5 -135.5q0 -47 14 -90.5t42 -78.5t69 -55t94 -20q48 0 88 16.5t68.5 45.5t44 68t15.5 82zM376 191 q0 -47 -31 -79t-73 -32q-50 0 -88.5 33.5t-38.5 87.5q0 18 3 35t8 23q21 22 51 34.5t65 12.5q41 0 72.5 -34.5t31.5 -80.5z" />
<glyph unicode="7" horiz-adv-x="482" d="M477 646h-433v-91h271l-298 -555h107z" />
<glyph unicode="8" horiz-adv-x="470" d="M432 184q0 62 -30 101t-84 71q36 27 59 67.5t23 85.5q0 64 -44.5 104.5t-120.5 40.5q-78 0 -124 -40.5t-46 -104.5q0 -44 23 -82.5t61 -68.5q-51 -33 -81.5 -78t-30.5 -109q0 -79 51.5 -129.5t145.5 -50.5q38 0 74 15t64 42t44 62.5t16 73.5zM308 509q0 -29 -20 -57.5 t-52 -48.5q-34 21 -55.5 51.5t-21.5 63.5q0 27 23.5 46t51.5 19q27 0 50.5 -22.5t23.5 -51.5zM337 192q0 -49 -34.5 -81t-71.5 -32q-36 0 -67 29.5t-31 67.5q0 40 25.5 71t69.5 59q53 -33 81 -59.5t28 -54.5z" />
<glyph unicode="9" horiz-adv-x="497" d="M456 405q0 48 -13.5 93t-40.5 81t-65.5 56.5t-86.5 20.5q-47 0 -88 -16t-72 -45t-48 -67.5t-17 -82.5q0 -39 15 -74.5t43 -62t65 -41.5t79 -15q24 0 55 11t53 22q-10 -39 -35.5 -80.5t-59 -79t-69 -69t-69.5 -56.5h128q44 31 84 72.5t72.5 93.5t51 113t18.5 126zM360 399 l-4 -4q-29 -26 -49 -36q-36 -19 -80 -19q-43 0 -74 35.5t-31 82.5q0 46 37.5 77t83.5 31q54 0 85.5 -50t31.5 -117z" />
<glyph unicode=":" horiz-adv-x="247" d="M195 372l-72 72h-8l-72 -72l72 -72h8zM195 35l-72 72h-8l-72 -72l72 -72h8z" />
<glyph unicode=";" horiz-adv-x="232" d="M195 373l-72 72h-8l-72 -72l72 -72h8zM193 9q0 16 -3.5 25t-14.5 21l-52 52h-8l-72 -72l58 -55q0 -38 -11 -66.5t-40 -46.5v-22q24 5 50 22.5t47 42t33.5 51t12.5 48.5z" />
<glyph unicode="?" horiz-adv-x="404" d="M382 509q0 35 -15.5 63t-41.5 47t-57 28.5t-61 9.5q-28 0 -55.5 -6t-49.5 -16.5t-35 -24.5t-13 -29v-109h8q37 49 73 75.5t72 26.5q35 0 60.5 -20t25.5 -45q0 -27 -23.5 -46.5t-71.5 -44.5q-32 -17 -51 -28.5t-37 -27.5t-28.5 -37t-10.5 -47q0 -55 40.5 -89t91.5 -34 q34 0 65 18.5t52 43.5l-41 83h-8q-14 -29 -36.5 -46t-31.5 -17q-15 0 -29 13t-14 28q0 18 32 38q16 11 54 31q15 7 22 11q52 30 83 65t31 86zM279 47l-73 72h-8l-72 -72l72 -73h8z" />
<glyph unicode="@" horiz-adv-x="670" d="M646 268q0 52 -20 99.5t-59.5 84t-97 57.5t-129.5 21q-67 0 -126.5 -25t-103.5 -68t-68 -97t-24 -110q1 -76 20.5 -128.5t62.5 -94.5h78q-53 47 -73.5 102t-20.5 121q0 49 22 94t59.5 79.5t83 54.5t90.5 20t87.5 -14t77.5 -41t55.5 -66.5t20.5 -88.5q0 -37 -6.5 -71 t-18.5 -60.5t-28 -41.5t-33 -15h-30l34 313h-70l-7 -12q-32 26 -81 26q-44 0 -79.5 -17.5t-60.5 -47.5t-38 -68.5t-13 -79.5q0 -72 39 -118t112 -46q22 0 42.5 7.5t40.5 19.5l-6 -21q16 -2 49 -5t65 -3q36 0 65 19t48.5 52.5t30 77t10.5 91.5zM408 268v-3q-1 -2 -1 -3 l-11 -103q-2 -22 -28.5 -35t-55.5 -13q-35 0 -54.5 26t-19.5 67q0 53 26.5 89t73.5 36q29 0 49.5 -14.5t20.5 -46.5z" />
<glyph unicode="A" horiz-adv-x="721" d="M671 0l-255 646h-113l-263 -646h106l65 163h288l65 -163h107zM463 253h-216l109 272z" />
<glyph unicode="B" horiz-adv-x="568" d="M512 189q0 76 -40.5 125t-91.5 61q24 16 41.5 52.5t17.5 74.5q0 65 -43.5 104.5t-121.5 39.5h-202v-646h222q44 0 83 10t69.5 32.5t48 59t17.5 87.5zM328 481q0 -34 -22.5 -60.5t-49.5 -26.5h-85v167h61q48 0 72 -21t24 -59zM403 201q0 -109 -118 -109h-114v213h113 q53 0 86 -28.5t33 -75.5z" />
<glyph unicode="C" horiz-adv-x="689" d="M633 34v118h-8q-53 -38 -105.5 -60.5t-116.5 -22.5q-49 0 -93.5 19.5t-79 54.5t-54 81t-19.5 97t20 96.5t55 80t80.5 53.5t94.5 19q68 0 124.5 -23t93.5 -61h8v114q-44 37 -101 52.5t-129 15.5q-73 0 -137.5 -27t-113 -75.5t-75.5 -112t-27 -134.5t27 -134.5t75.5 -112 t113 -75.5t137.5 -27q65 0 129 18.5t101 45.5z" />
<glyph unicode="D" horiz-adv-x="709" d="M652 326q0 60 -21 117t-64 103t-108.5 73t-150.5 27h-240v-646h227q172 0 264.5 89t92.5 237zM542 330q0 -113 -66.5 -174.5t-207.5 -61.5h-101v458h94q134 0 207.5 -58.5t73.5 -163.5z" />
<glyph unicode="E" horiz-adv-x="528" d="M487 89h-318v206h230v90h-230v172h299v89h-398v-646h417v89z" />
<glyph unicode="F" horiz-adv-x="485" d="M465 646h-398v-646h99v295h230v90h-230v173h299v88z" />
<glyph unicode="G" horiz-adv-x="695" d="M645 38v306h-207v-89h107v-152q-24 -12 -65 -21t-80 -9q-51 0 -95.5 19.5t-78 55t-52 83.5t-18.5 104q0 50 18.5 93.5t52 75.5t78.5 49.5t97 17.5q71 0 133 -22t92 -59h8v117q-15 9 -39.5 19t-56 18.5t-66.5 14t-69 5.5q-78 0 -143.5 -26t-113 -73.5t-72.5 -109.5 t-25 -132t25.5 -132.5t72 -110.5t110.5 -75t138 -27q34 0 76 8.5t79.5 19.5t61 19.5t32.5 12.5z" />
<glyph unicode="H" horiz-adv-x="659" d="M593 0v646h-99v-261h-329v261h-99v-646h99v294h329v-294h99z" />
<glyph unicode="I" horiz-adv-x="237" d="M169 646h-99v-646h99v646z" />
<glyph unicode="J" horiz-adv-x="429" d="M357 138v508h-94v-490q0 -30 -22.5 -54t-49.5 -24q-23 0 -46.5 24.5t-41.5 56.5l-82 -41q18 -59 65.5 -95t110.5 -36q32 0 61.5 11.5t51.5 32.5t34.5 48.5t12.5 58.5z" />
<glyph unicode="K" horiz-adv-x="593" d="M561 0l-327 352l289 294h-120l-238 -243h-7v243h-92v-646h92l1 298l275 -298h127z" />
<glyph unicode="L" horiz-adv-x="486" d="M436 0v85h-278v561h-92v-646h370z" />
<glyph unicode="M" horiz-adv-x="774" d="M707 646h-98l-230 -267l-219 267h-92v-646h100v491l212 -261h8l219 262v-492h100v646z" />
<glyph unicode="N" horiz-adv-x="719" d="M655 646h-98v-484l-397 484h-89v-646h99v467l379 -467h106v646z" />
<glyph unicode="O" horiz-adv-x="812" d="M759 327q0 71 -27 134.5t-75.5 112t-113 75.5t-137.5 27t-137.5 -27t-113 -75.5t-75.5 -112t-27 -134.5t27 -135t75.5 -112t113 -75t137.5 -27t137.5 27t113 75t75.5 112t27 135zM653 328q0 -51 -19.5 -96.5t-53.5 -80.5t-79 -54.5t-94 -19.5t-94 19.5t-79 54.5 t-53.5 80.5t-19.5 96.5t20 96.5t55 80t80.5 53.5t94.5 19t93 -19t78 -53.5t52.5 -80t18.5 -96.5z" />
<glyph unicode="P" horiz-adv-x="528" d="M490 441q0 99 -60 152t-193 53h-164v-646h97v253h67q125 0 189 48.5t64 139.5zM382 448q0 -51 -38 -75.5t-107 -24.5h-67v202h67q72 0 108.5 -23.5t36.5 -78.5z" />
<glyph unicode="Q" horiz-adv-x="803" d="M752 322q0 71 -26.5 134.5t-75 112t-112.5 75.5t-137 27t-137.5 -27t-112.5 -75.5t-74.5 -112t-26.5 -134.5t26.5 -134.5t75 -112t112.5 -75.5t137 -27q60 0 114 18t98 51l72 -60h8l58 75l-68 56q33 44 51 97.5t18 111.5zM646 323q0 -38 -11.5 -75t-31.5 -67l-67 55h-8 l-57 -75l60 -50q-30 -19 -63.5 -29.5t-66.5 -10.5q-49 0 -93.5 19.5t-78.5 54.5t-53 81t-19 97t19.5 97t54.5 80.5t80 54t94 19.5t93 -19.5t77.5 -54t52 -80.5t18.5 -97z" />
<glyph unicode="R" horiz-adv-x="531" d="M537 0l-196 295q49 23 82.5 69.5t33.5 105.5q0 40 -17 72.5t-47.5 55.5t-70.5 35.5t-86 12.5h-169v-646h99v279h71l184 -279h116zM351 470q0 -45 -32 -74t-83 -29h-70v188h93q32 0 62 -25.5t30 -59.5z" />
<glyph unicode="S" horiz-adv-x="496" d="M454 184q0 80 -37 123t-125 88q-10 5 -24 11q-46 21 -69 40.5t-23 54.5q0 28 20 47.5t45 19.5q35 0 58.5 -20t38.5 -53l82 50q-20 51 -66.5 81.5t-109.5 30.5q-78 0 -122.5 -48.5t-44.5 -117.5q0 -61 41.5 -102.5t113.5 -76.5q62 -30 92 -56t30 -72q0 -42 -29 -73 t-68 -31q-42 0 -73.5 28.5t-56.5 75.5l-86 -42q21 -68 79 -110t137 -42q41 0 77 15t63.5 42t42 62.5t14.5 74.5z" />
<glyph unicode="T" horiz-adv-x="581" d="M541 557v89h-501v-89h197v-557h99v557h205z" />
<glyph unicode="U" horiz-adv-x="693" d="M640 273v373h-99v-311q0 -257 -203 -257q-90 0 -137.5 68t-47.5 189v311h-99v-373q0 -56 17 -108.5t51.5 -94t88 -65.5t124.5 -24q72 0 129.5 22t96.5 61.5t59 93t20 115.5z" />
<glyph unicode="V" horiz-adv-x="652" d="M628 646h-106l-200 -523l-192 523h-108l240 -646h114z" />
<glyph unicode="W" horiz-adv-x="951" d="M927 646h-106l-151 -466l-147 459h-100l-146 -459l-148 466h-106l210 -646h88l151 471l157 -471h87z" />
<glyph unicode="X" horiz-adv-x="715" d="M664 0l-247 342l226 304h-124l-163 -218l-158 218h-128l221 -305l-255 -341h128l189 255l184 -255h127z" />
<glyph unicode="Y" horiz-adv-x="564" d="M530 646h-115l-141 -235l-126 235h-115l188 -344v-302h103v309z" />
<glyph unicode="Z" horiz-adv-x="654" d="M615 646h-559v-86h382l-389 -546l14 -14h544v94h-381z" />
<glyph unicode="[" horiz-adv-x="1018" />
<glyph unicode="\" horiz-adv-x="1018" />
<glyph unicode="]" horiz-adv-x="1018" />
<glyph unicode="^" horiz-adv-x="1018" />
<glyph unicode="_" horiz-adv-x="1018" />
<glyph unicode="`" horiz-adv-x="365" d="M305 534l-130 112h-114l154 -112h90z" />
<glyph unicode="a" d="M524 0l-198 486h-98l-203 -486h99l48 118h204l48 -118h100zM343 199h-137l69 167z" />
<glyph unicode="b" horiz-adv-x="430" d="M394 145q0 51 -25.5 86.5t-65.5 51.5q17 19 26.5 42.5t9.5 46.5q0 50 -35.5 82t-97.5 32h-160v-486h175q35 0 65.5 8t55 25t38.5 45t14 67zM238 357q0 -22 -15 -39t-31 -17h-54v108h37q32 0 47.5 -14t15.5 -38zM294 153q0 -71 -80 -71h-76v140h76q36 0 58 -19t22 -50z " />
<glyph unicode="c" horiz-adv-x="521" d="M487 342v105q-37 30 -81.5 42t-100.5 12q-57 0 -107 -20.5t-87.5 -56.5t-58.5 -83.5t-21 -100.5t21 -101t58.5 -84t87.5 -56.5t107 -20.5q51 0 100 14t82 36v105h-8q-51 -35 -90 -51.5t-84 -16.5q-34 0 -66 13.5t-56.5 38t-38.5 57t-14 67.5t14.5 66.5t39.5 56t57 37.5 t67 13q49 0 90 -17.5t81 -54.5h8z" />
<glyph unicode="d" horiz-adv-x="536" d="M500 245q0 45 -16.5 88t-49.5 77.5t-84 55t-117 20.5h-189v-486h179q133 0 205 67t72 178zM400 247q0 -79 -47.5 -121t-149.5 -42h-67v317h62q97 0 149.5 -41t52.5 -113z" />
<glyph unicode="e" horiz-adv-x="403" d="M373 0v80h-238v134h172v81h-172v109h224v82h-316v-486h330z" />
<glyph unicode="f" horiz-adv-x="373" d="M359 405v81h-316v-486h92v214h172v81h-172v110h224z" />
<glyph unicode="g" horiz-adv-x="536" d="M494 30v236h-173v-81h80v-98q-20 -8 -47 -13.5t-53 -5.5q-74 0 -123.5 52t-49.5 131q0 71 50 117.5t125 46.5q51 0 96 -17.5t80 -55.5h8v111q-31 18 -81 31.5t-102 13.5q-61 0 -112 -20t-87 -55t-55.5 -81.5t-19.5 -99.5q0 -52 19.5 -99t55.5 -83t86 -56t108 -20 q25 0 55.5 5.5t58 13.5t49.5 15.5t32 11.5z" />
<glyph unicode="h" horiz-adv-x="498" d="M456 0v486h-92v-191h-229v191h-92v-486h92v213h229v-213h92z" />
<glyph unicode="i" horiz-adv-x="182" d="M138 0v486h-92v-486h92z" />
<glyph unicode="j" horiz-adv-x="332" d="M286 486h-89v-365q0 -20 -16 -34q-15 -15 -34 -15q-13 0 -28.5 19.5t-27.5 42.5l-77 -37q15 -46 51 -76t92 -30q54 0 91.5 34t37.5 83v378z" />
<glyph unicode="k" horiz-adv-x="461" d="M447 0l-252 263l225 223h-115l-170 -170v170h-87v-486h87v203l193 -203h119z" />
<glyph unicode="l" horiz-adv-x="369" d="M337 0v77h-208v409h-87v-486h295z" />
<glyph unicode="m" horiz-adv-x="585" d="M542 486h-87l-168 -190l-160 190h-83v-486h93v340l149 -177h8l154 178v-341h94v486z" />
<glyph unicode="n" horiz-adv-x="544" d="M500 0v486h-92v-337l-284 337h-78v-486h92v322l270 -322h92z" />
<glyph unicode="o" horiz-adv-x="613" d="M581 245q0 53 -21 101t-58.5 84t-87.5 56.5t-107 20.5t-107 -20.5t-87.5 -56.5t-58.5 -84t-21 -101t21 -101t58.5 -84t87.5 -56.5t107 -20.5t107 20.5t87.5 56.5t58.5 84t21 101zM483 246q0 -36 -14 -68t-38.5 -56t-56.5 -37.5t-67 -13.5q-34 0 -66 13.5t-56.5 38 t-38.5 56.5t-14 67t14.5 67t39.5 56t57 37.5t67 13.5t66.5 -13t55.5 -37.5t37.5 -56t13.5 -67.5z" />
<glyph unicode="p" horiz-adv-x="401" d="M378 328q0 75 -47.5 116.5t-151.5 41.5h-132v-486h90v184h42q97 0 148 37t51 107zM279 333q0 -65 -100 -65h-42v131h42q52 0 76 -15t24 -51z" />
<glyph unicode="q" horiz-adv-x="607" d="M578 50l-51 41q49 69 49 150q0 53 -20.5 101t-58 84.5t-87 56.5t-106.5 20t-107 -20.5t-87.5 -56.5t-58 -84t-20.5 -101t20.5 -101t58 -84t87.5 -56t107 -20q88 0 158 47l60 -48zM479 242q0 -47 -26 -91l-53 43l-56 -71l43 -34q-43 -23 -83 -23q-35 0 -66.5 13.5 t-55.5 38t-38 56.5t-14 68q0 35 14 67.5t39 56.5t57 37.5t67 13.5t66 -13.5t55 -37.5t37.5 -56t13.5 -68z" />
<glyph unicode="r" horiz-adv-x="434" d="M420 0l-150 219q37 21 60 55t23 75q0 61 -50.5 99t-124.5 38h-135v-486h92v203h39l138 -203h108zM255 349q0 -29 -21 -48t-56 -19h-43v121h61q20 0 39.5 -16.5t19.5 -37.5z" />
<glyph unicode="s" horiz-adv-x="377" d="M352 144q0 52 -24.5 85t-73.5 58q-21 12 -59 28q-24 10 -38 21.5t-14 32.5q0 17 12.5 29t26.5 12q23 0 39 -14t30 -43l77 44q-19 44 -56 68t-87 24q-63 0 -98.5 -37t-35.5 -91q0 -48 32 -77.5t89 -55.5q3 -1 10 -4q36 -17 56.5 -34t20.5 -46q0 -28 -20 -48t-45 -20 q-27 0 -49.5 20t-43.5 59l-79 -38q20 -57 65 -89.5t107 -32.5q68 0 113 43.5t45 105.5z" />
<glyph unicode="t" horiz-adv-x="440" d="M416 486h-393v-81h147v-405h92v405h154v81z" />
<glyph unicode="u" horiz-adv-x="524" d="M490 206v280h-92v-235q0 -179 -144 -179q-62 0 -95.5 46.5t-33.5 132.5v235h-92v-280q0 -42 13 -81.5t40 -71t69 -49.5t98 -18q111 0 174 62t63 158z" />
<glyph unicode="v" horiz-adv-x="505" d="M492 486h-99l-143 -364l-138 364h-100l186 -486h98z" />
<glyph unicode="w" horiz-adv-x="730" d="M716 486h-98l-107 -319l-103 313h-88l-103 -313l-105 319h-98l163 -486h79l107 322l111 -322h79z" />
<glyph unicode="x" horiz-adv-x="541" d="M517 0l-191 256l175 230h-114l-118 -153l-113 153h-118l171 -231l-197 -255h118l136 178l133 -178h118z" />
<glyph unicode="y" horiz-adv-x="427" d="M416 486h-107l-100 -162l-90 162h-106l147 -261v-225h95v230z" />
<glyph unicode="z" horiz-adv-x="507" d="M485 486h-442v-78h280l-287 -391l17 -17h419v83h-279z" />
<glyph unicode="&#xa2;" horiz-adv-x="443" d="M400 114v112h-8q-22 -21 -43.5 -32.5t-48.5 -17.5v279q27 -7 48.5 -16.5t43.5 -25.5h8v107q-36 20 -100 26v72h-84v-72q-91 -15 -140.5 -77.5t-49.5 -154.5q0 -87 51.5 -151t138.5 -82v-67h84v64q33 4 56.5 12t43.5 24zM216 186q-85 44 -85 127q0 82 85 132v-259z" />
<glyph unicode="&#xa3;" horiz-adv-x="677" d="M627 82h-388q15 40 20.5 82.5t8.5 100.5h152l34 76h-180q0 3 2 24q3 37 6 64.5t9 54.5q11 43 30 68.5t48 25.5q20 0 42.5 -26.5t33.5 -54.5h8l49 82q-20 32 -57.5 54.5t-77.5 22.5q-63 0 -100.5 -29.5t-58.5 -81.5q-15 -37 -22 -79.5t-14 -102.5l-2 -22h-52l-36 -76h83 q-3 -62 -10.5 -104t-28.5 -80q-12 -22 -33 -42t-48 -38h540z" />
<glyph unicode="&#xa4;" horiz-adv-x="471" d="M419 0v78h-113q49 39 79 89t30 107q0 83 -48.5 134.5t-146.5 51.5q-27 0 -54 -7t-50.5 -17.5t-42.5 -22t-31 -21.5v-127l8 -1q29 41 74 70.5t96 29.5q36 0 61 -22t25 -58t-24.5 -76t-63 -78.5t-80 -69t-77.5 -50.5l5 -10h353z" />
<glyph unicode="&#xa7;" horiz-adv-x="626" d="M616 1l-144 165l10 21q25 49 40 75q7 11 16 30q10 22 18 34.5t21 24.5h-110q-10 -9 -25 -39l-12 -21q-10 -19 -24 -49l-93 105l16 9q37 20 67 62t30 91q0 31 -11.5 59t-33.5 49.5t-51.5 33.5t-63.5 12q-81 0 -132 -43t-51 -111q0 -14 6 -30.5t13.5 -30.5t13.5 -23t9 -13 l34 -38l-15 -8q-45 -23 -80.5 -70.5t-35.5 -112.5q0 -44 17.5 -80t48.5 -61.5t70.5 -39t84.5 -13.5q49 0 92.5 26t77.5 65l70 -79h127zM321 509q0 -26 -17.5 -48t-46.5 -37l-7 -4l-47 53q-4 7 -9.5 20.5t-5.5 25.5q0 27 24 41.5t54 14.5q19 0 37 -21t18 -45zM350 158 q-28 -37 -52.5 -55.5t-59.5 -18.5q-40 0 -70 27.5t-30 68.5q0 37 19.5 66.5t54.5 47.5l12 7z" />
<glyph unicode="&#xa8;" horiz-adv-x="329" d="M299 538l-51 51h-8l-50 -51l50 -50h8zM132 538l-50 51h-8l-51 -51l51 -50h8z" />
<glyph unicode="&#xaa;" d="M524 0l-198 486h-98l-203 -486h99l48 118h204l48 -118h100zM343 199h-137l69 167z" />
<glyph unicode="&#xad;" horiz-adv-x="406" d="M318 212v83h-232v-83h232z" />
<glyph unicode="&#xb0;" horiz-adv-x="468" d="M431 184q0 61 -30.5 100.5t-84.5 71.5q37 27 60 67.5t23 85.5q0 63 -45 104t-120 41q-78 0 -124.5 -41t-46.5 -104q0 -44 23.5 -82.5t61.5 -68.5q-51 -33 -81.5 -78t-30.5 -109q0 -79 51.5 -129.5t145.5 -50.5q38 0 73.5 15.5t64 42t44.5 62t16 73.5zM307 509 q0 -29 -20 -57.5t-52 -48.5q-34 21 -55.5 51.5t-21.5 63.5q0 27 23.5 46t51.5 19q27 0 50.5 -22.5t23.5 -51.5zM336 192q0 -49 -35 -81t-71 -32t-67 29.5t-31 67.5q0 40 25.5 71t69.5 59q53 -33 81 -59.5t28 -54.5z" />
<glyph unicode="&#xb2;" horiz-adv-x="522" d="M462 0v84h-231l180 287q2 4 6 14.5t9 26t8.5 32.5t3.5 31q0 83 -48.5 134.5t-146.5 51.5q-51 0 -99 -21.5t-79 -46.5v-127h8q29 40 74.5 69.5t95.5 29.5q36 0 62 -22t26 -58q0 -15 -6 -36t-13 -39t-13 -30t-9 -17l-230 -363h402z" />
<glyph unicode="&#xb3;" horiz-adv-x="520" d="M472 645h-415v-87h257l-131 -232q39 0 68.5 -6t52.5 -21t36 -42.5t13 -68.5t-31.5 -70t-71.5 -29q-42 0 -75.5 24t-55.5 69h-8l-63 -68q3 -18 21 -39t45.5 -39.5t60.5 -30.5t66 -12q44 0 84.5 14.5t71.5 41.5t48 63.5t17 77.5q0 71 -37.5 129t-94.5 74z" />
<glyph unicode="&#xb4;" horiz-adv-x="355" d="M311 646h-115l-130 -112h90z" />
<glyph unicode="&#xb7;" horiz-adv-x="503" d="M460 203q0 48 -14 93t-41 80.5t-66 56.5t-87 21q-47 0 -88 -16t-72 -45t-48 -67.5t-17 -82.5q0 -40 15.5 -75t43.5 -62t65 -42t78 -15q24 0 53 10.5t55 22.5q-11 -40 -36 -81t-57.5 -78.5t-68 -69.5t-68.5 -56h125q44 31 84.5 73t73 94.5t51.5 113t19 125.5zM362 197 l-5 -4q-29 -26 -47 -36q-35 -19 -81 -19q-42 0 -73 35t-31 83q0 46 37.5 77t83.5 31q53 0 84.5 -50.5t31.5 -116.5z" />
<glyph unicode="&#x2219;" horiz-adv-x="503" d="M460 203q0 48 -14 93t-41 80.5t-66 56.5t-87 21q-47 0 -88 -16t-72 -45t-48 -67.5t-17 -82.5q0 -40 15.5 -75t43.5 -62t65 -42t78 -15q24 0 53 10.5t55 22.5q-11 -40 -36 -81t-57.5 -78.5t-68 -69.5t-68.5 -56h125q44 31 84.5 73t73 94.5t51.5 113t19 125.5zM362 197 l-5 -4q-29 -26 -47 -36q-35 -19 -81 -19q-42 0 -73 35t-31 83q0 46 37.5 77t83.5 31q53 0 84.5 -50.5t31.5 -116.5z" />
<glyph unicode="&#xb9;" horiz-adv-x="239" d="M171 1v646h-101v-646h101z" />
<glyph unicode="&#xba;" horiz-adv-x="613" d="M581 245q0 53 -21 101t-58.5 84t-87.5 56.5t-107 20.5t-107 -20.5t-87.5 -56.5t-58.5 -84t-21 -101t21 -101t58.5 -84t87.5 -56.5t107 -20.5t107 20.5t87.5 56.5t58.5 84t21 101zM483 246q0 -36 -14 -68t-38.5 -56t-56.5 -37.5t-67 -13.5q-34 0 -66 13.5t-56.5 38 t-38.5 56.5t-14 67t14.5 67t39.5 56t57 37.5t67 13.5t66.5 -13t55.5 -37.5t37.5 -56t13.5 -67.5z" />
<glyph unicode="&#xc0;" horiz-adv-x="721" d="M405 736l-130 112h-114l154 -112h90zM671 0l-255 646h-113l-263 -646h106l65 163h288l65 -163h107zM463 253h-216l109 272z" />
<glyph unicode="&#xc1;" horiz-adv-x="721" d="M559 848h-115l-130 -112h90zM671 0l-255 646h-113l-263 -646h106l65 163h288l65 -163h107zM463 253h-216l109 272z" />
<glyph unicode="&#xc2;" horiz-adv-x="721" d="M531 736l-111 112h-123l-108 -112h68l102 76l102 -76h70zM671 0l-255 646h-113l-263 -646h106l65 163h288l65 -163h107zM463 253h-216l109 272z" />
<glyph unicode="&#xc4;" horiz-adv-x="721" d="M497 786l-51 51h-8l-50 -51l50 -50h8zM330 786l-50 51h-8l-51 -51l51 -50h8zM671 0l-255 646h-113l-263 -646h106l65 163h288l65 -163h107zM463 253h-216l109 272z" />
<glyph unicode="&#xc5;" horiz-adv-x="721" d="M557 847q0 61 -30.5 100.5t-84.5 71.5q37 27 60 67.5t23 85.5q0 63 -45 104t-120 41q-78 0 -124.5 -41t-46.5 -104q0 -44 23.5 -82.5t61.5 -68.5q-51 -33 -81.5 -78t-30.5 -109q0 -79 51.5 -129.5t145.5 -50.5q38 0 73.5 15.5t64 42t44.5 62t16 73.5zM433 1172 q0 -29 -20 -57.5t-52 -48.5q-34 21 -55.5 51.5t-21.5 63.5q0 27 23.5 46t51.5 19q27 0 50.5 -22.5t23.5 -51.5zM462 855q0 -49 -35 -81t-71 -32t-67 29.5t-31 67.5q0 40 25.5 71t69.5 59q53 -33 81 -59.5t28 -54.5zM671 0l-255 646h-113l-263 -646h106l65 163h288l65 -163 h107zM463 253h-216l109 272z" />
<glyph unicode="&#xc8;" horiz-adv-x="528" d="M314 736l-130 112h-114l154 -112h90zM487 89h-318v206h230v90h-230v172h299v89h-398v-646h417v89z" />
<glyph unicode="&#xc9;" horiz-adv-x="528" d="M469 848h-115l-130 -112h90zM487 89h-318v206h230v90h-230v172h299v89h-398v-646h417v89z" />
<glyph unicode="&#xca;" horiz-adv-x="528" d="M440 736l-111 112h-123l-108 -112h68l102 76l102 -76h70zM487 89h-318v206h230v90h-230v172h299v89h-398v-646h417v89z" />
<glyph unicode="&#xcb;" horiz-adv-x="528" d="M407 786l-51 51h-8l-50 -51l50 -50h8zM240 786l-50 51h-8l-51 -51l51 -50h8zM487 89h-318v206h230v90h-230v172h299v89h-398v-646h417v89z" />
<glyph unicode="&#xcc;" horiz-adv-x="237" d="M165 736l-130 112h-114l154 -112h90zM169 646h-99v-646h99v646z" />
<glyph unicode="&#xcd;" horiz-adv-x="237" d="M319 848h-115l-130 -112h90zM169 646h-99v-646h99v646z" />
<glyph unicode="&#xce;" horiz-adv-x="237" d="M291 736l-111 112h-123l-108 -112h68l102 76l102 -76h70zM169 646h-99v-646h99v646z" />
<glyph unicode="&#xcf;" horiz-adv-x="237" d="M257 786l-51 51h-8l-50 -51l50 -50h8zM90 786l-50 51h-8l-51 -51l51 -50h8zM169 646h-99v-646h99v646z" />
<glyph unicode="&#xd2;" horiz-adv-x="812" d="M451 736l-130 112h-114l154 -112h90zM759 327q0 71 -27 134.5t-75.5 112t-113 75.5t-137.5 27t-137.5 -27t-113 -75.5t-75.5 -112t-27 -134.5t27 -135t75.5 -112t113 -75t137.5 -27t137.5 27t113 75t75.5 112t27 135zM653 328q0 -51 -19.5 -96.5t-53.5 -80.5t-79 -54.5 t-94 -19.5t-94 19.5t-79 54.5t-53.5 80.5t-19.5 96.5t20 96.5t55 80t80.5 53.5t94.5 19t93 -19t78 -53.5t52.5 -80t18.5 -96.5z" />
<glyph unicode="&#xd3;" horiz-adv-x="812" d="M606 848h-115l-130 -112h90zM759 327q0 71 -27 134.5t-75.5 112t-113 75.5t-137.5 27t-137.5 -27t-113 -75.5t-75.5 -112t-27 -134.5t27 -135t75.5 -112t113 -75t137.5 -27t137.5 27t113 75t75.5 112t27 135zM653 328q0 -51 -19.5 -96.5t-53.5 -80.5t-79 -54.5t-94 -19.5 t-94 19.5t-79 54.5t-53.5 80.5t-19.5 96.5t20 96.5t55 80t80.5 53.5t94.5 19t93 -19t78 -53.5t52.5 -80t18.5 -96.5z" />
<glyph unicode="&#xd4;" horiz-adv-x="812" d="M577 736l-111 112h-123l-108 -112h68l102 76l102 -76h70zM759 327q0 71 -27 134.5t-75.5 112t-113 75.5t-137.5 27t-137.5 -27t-113 -75.5t-75.5 -112t-27 -134.5t27 -135t75.5 -112t113 -75t137.5 -27t137.5 27t113 75t75.5 112t27 135zM653 328q0 -51 -19.5 -96.5 t-53.5 -80.5t-79 -54.5t-94 -19.5t-94 19.5t-79 54.5t-53.5 80.5t-19.5 96.5t20 96.5t55 80t80.5 53.5t94.5 19t93 -19t78 -53.5t52.5 -80t18.5 -96.5z" />
<glyph unicode="&#xd6;" horiz-adv-x="812" d="M544 786l-51 51h-8l-50 -51l50 -50h8zM377 786l-50 51h-8l-51 -51l51 -50h8zM759 327q0 71 -27 134.5t-75.5 112t-113 75.5t-137.5 27t-137.5 -27t-113 -75.5t-75.5 -112t-27 -134.5t27 -135t75.5 -112t113 -75t137.5 -27t137.5 27t113 75t75.5 112t27 135zM653 328 q0 -51 -19.5 -96.5t-53.5 -80.5t-79 -54.5t-94 -19.5t-94 19.5t-79 54.5t-53.5 80.5t-19.5 96.5t20 96.5t55 80t80.5 53.5t94.5 19t93 -19t78 -53.5t52.5 -80t18.5 -96.5z" />
<glyph unicode="&#xd9;" horiz-adv-x="693" d="M392 736l-130 112h-114l154 -112h90zM640 273v373h-99v-311q0 -257 -203 -257q-90 0 -137.5 68t-47.5 189v311h-99v-373q0 -56 17 -108.5t51.5 -94t88 -65.5t124.5 -24q72 0 129.5 22t96.5 61.5t59 93t20 115.5z" />
<glyph unicode="&#xda;" horiz-adv-x="693" d="M547 848h-115l-130 -112h90zM640 273v373h-99v-311q0 -257 -203 -257q-90 0 -137.5 68t-47.5 189v311h-99v-373q0 -56 17 -108.5t51.5 -94t88 -65.5t124.5 -24q72 0 129.5 22t96.5 61.5t59 93t20 115.5z" />
<glyph unicode="&#xdb;" horiz-adv-x="693" d="M518 736l-111 112h-123l-108 -112h68l102 76l102 -76h70zM640 273v373h-99v-311q0 -257 -203 -257q-90 0 -137.5 68t-47.5 189v311h-99v-373q0 -56 17 -108.5t51.5 -94t88 -65.5t124.5 -24q72 0 129.5 22t96.5 61.5t59 93t20 115.5z" />
<glyph unicode="&#xdc;" horiz-adv-x="693" d="M485 786l-51 51h-8l-50 -51l50 -50h8zM318 786l-50 51h-8l-51 -51l51 -50h8zM640 273v373h-99v-311q0 -257 -203 -257q-90 0 -137.5 68t-47.5 189v311h-99v-373q0 -56 17 -108.5t51.5 -94t88 -65.5t124.5 -24q72 0 129.5 22t96.5 61.5t59 93t20 115.5z" />
<glyph unicode="&#xdd;" horiz-adv-x="564" d="M481 848h-115l-130 -112h90zM530 646h-115l-141 -235l-126 235h-115l188 -344v-302h103v309z" />
<glyph unicode="&#xe0;" d="M524 0l-198 486h-98l-203 -486h99l48 118h204l48 -118h100zM343 199h-137l69 167zM394 534l-130 112h-114l154 -112h90z" />
<glyph unicode="&#xe1;" d="M524 0l-198 486h-98l-203 -486h99l48 118h204l48 -118h100zM343 199h-137l69 167zM410 646h-115l-130 -112h90z" />
<glyph unicode="&#xe2;" d="M524 0l-198 486h-98l-203 -486h99l48 118h204l48 -118h100zM343 199h-137l69 167zM449 534l-111 112h-123l-108 -112h68l102 76l102 -76h70z" />
<glyph unicode="&#xe4;" d="M524 0l-198 486h-98l-203 -486h99l48 118h204l48 -118h100zM343 199h-137l69 167zM415 598l-51 51h-8l-50 -51l50 -50h8zM248 598l-50 51h-8l-51 -51l51 -50h8z" />
<glyph unicode="&#xe5;" d="M475 760q0 61 -30.5 100.5t-84.5 71.5q37 27 60 67.5t23 85.5q0 63 -45 104t-120 41q-78 0 -124.5 -41t-46.5 -104q0 -44 23.5 -82.5t61.5 -68.5q-51 -33 -81.5 -78t-30.5 -109q0 -79 51.5 -129.5t145.5 -50.5q38 0 73.5 15.5t64 42t44.5 62t16 73.5zM351 1085 q0 -29 -20 -57.5t-52 -48.5q-34 21 -55.5 51.5t-21.5 63.5q0 27 23.5 46t51.5 19q27 0 50.5 -22.5t23.5 -51.5zM380 768q0 -49 -35 -81t-71 -32t-67 29.5t-31 67.5q0 40 25.5 71t69.5 59q53 -33 81 -59.5t28 -54.5zM524 0l-198 486h-98l-203 -486h99l48 118h204l48 -118h100 zM343 199h-137l69 167z" />
<glyph unicode="&#xe8;" horiz-adv-x="403" d="M373 0v80h-238v134h172v81h-172v109h224v82h-316v-486h330zM314 534l-130 112h-114l154 -112h90z" />
<glyph unicode="&#xe9;" horiz-adv-x="403" d="M373 0v80h-238v134h172v81h-172v109h224v82h-316v-486h330zM330 646h-115l-130 -112h90z" />
<glyph unicode="&#xea;" horiz-adv-x="403" d="M373 0v80h-238v134h172v81h-172v109h224v82h-316v-486h330zM369 534l-111 112h-123l-108 -112h68l102 76l102 -76h70z" />
<glyph unicode="&#xeb;" horiz-adv-x="403" d="M373 0v80h-238v134h172v81h-172v109h224v82h-316v-486h330zM338 598l-51 51h-8l-50 -51l50 -50h8zM171 598l-50 51h-8l-51 -51l51 -50h8z" />
<glyph unicode="&#xec;" horiz-adv-x="182" d="M137 0v486h-92v-486h92zM215 534l-130 112h-114l154 -112h90z" />
<glyph unicode="&#xed;" horiz-adv-x="182" d="M138 0v486h-92v-486h92zM222 646h-115l-130 -112h90z" />
<glyph unicode="&#xee;" horiz-adv-x="182" d="M137 0v486h-92v-486h92zM260 534l-111 112h-123l-108 -112h68l102 76l102 -76h70z" />
<glyph unicode="&#xef;" horiz-adv-x="182" d="M138 0v486h-92v-486h92zM230 598l-51 51h-8l-50 -51l50 -50h8zM63 598l-50 51h-8l-51 -51l51 -50h8z" />
<glyph unicode="&#xf2;" horiz-adv-x="613" d="M581 245q0 53 -21 101t-58.5 84t-87.5 56.5t-107 20.5t-107 -20.5t-87.5 -56.5t-58.5 -84t-21 -101t21 -101t58.5 -84t87.5 -56.5t107 -20.5t107 20.5t87.5 56.5t58.5 84t21 101zM483 246q0 -36 -14 -68t-38.5 -56t-56.5 -37.5t-67 -13.5q-34 0 -66 13.5t-56.5 38 t-38.5 56.5t-14 67t14.5 67t39.5 56t57 37.5t67 13.5t66.5 -13t55.5 -37.5t37.5 -56t13.5 -67.5zM415 534l-130 112h-114l154 -112h90z" />
<glyph unicode="&#xf3;" horiz-adv-x="613" d="M581 245q0 53 -21 101t-58.5 84t-87.5 56.5t-107 20.5t-107 -20.5t-87.5 -56.5t-58.5 -84t-21 -101t21 -101t58.5 -84t87.5 -56.5t107 -20.5t107 20.5t87.5 56.5t58.5 84t21 101zM483 246q0 -36 -14 -68t-38.5 -56t-56.5 -37.5t-67 -13.5q-34 0 -66 13.5t-56.5 38 t-38.5 56.5t-14 67t14.5 67t39.5 56t57 37.5t67 13.5t66.5 -13t55.5 -37.5t37.5 -56t13.5 -67.5zM431 646h-115l-130 -112h90z" />
<glyph unicode="&#xf4;" horiz-adv-x="613" d="M581 245q0 53 -21 101t-58.5 84t-87.5 56.5t-107 20.5t-107 -20.5t-87.5 -56.5t-58.5 -84t-21 -101t21 -101t58.5 -84t87.5 -56.5t107 -20.5t107 20.5t87.5 56.5t58.5 84t21 101zM483 246q0 -36 -14 -68t-38.5 -56t-56.5 -37.5t-67 -13.5q-34 0 -66 13.5t-56.5 38 t-38.5 56.5t-14 67t14.5 67t39.5 56t57 37.5t67 13.5t66.5 -13t55.5 -37.5t37.5 -56t13.5 -67.5zM480 534l-111 112h-123l-108 -112h68l102 76l102 -76h70z" />
<glyph unicode="&#xf6;" horiz-adv-x="613" d="M581 245q0 53 -21 101t-58.5 84t-87.5 56.5t-107 20.5t-107 -20.5t-87.5 -56.5t-58.5 -84t-21 -101t21 -101t58.5 -84t87.5 -56.5t107 -20.5t107 20.5t87.5 56.5t58.5 84t21 101zM483 246q0 -36 -14 -68t-38.5 -56t-56.5 -37.5t-67 -13.5q-34 0 -66 13.5t-56.5 38 t-38.5 56.5t-14 67t14.5 67t39.5 56t57 37.5t67 13.5t66.5 -13t55.5 -37.5t37.5 -56t13.5 -67.5zM439 598l-51 51h-8l-50 -51l50 -50h8zM272 598l-50 51h-8l-51 -51l51 -50h8z" />
<glyph unicode="&#xf9;" horiz-adv-x="494" d="M499 206v280h-92v-235q0 -179 -144 -179q-62 0 -95.5 46.5t-33.5 132.5v235h-92v-280q0 -42 13 -81.5t40 -71t69 -49.5t98 -18q111 0 174 62t63 158zM362 534l-130 112h-114l154 -112h90z" />
<glyph unicode="&#xfa;" horiz-adv-x="494" d="M499 206v280h-92v-235q0 -179 -144 -179q-62 0 -95.5 46.5t-33.5 132.5v235h-92v-280q0 -42 13 -81.5t40 -71t69 -49.5t98 -18q111 0 174 62t63 158zM409 646h-114l-130 -112h89z" />
<glyph unicode="&#xfb;" horiz-adv-x="494" d="M499 206v280h-92v-235q0 -179 -144 -179q-62 0 -95.5 46.5t-33.5 132.5v235h-92v-280q0 -42 13 -81.5t40 -71t69 -49.5t98 -18q111 0 174 62t63 158zM431 534l-110 112h-123l-109 -112h68l102 76l102 -76h70z" />
<glyph unicode="&#xfc;" horiz-adv-x="494" d="M499 206v280h-92v-235q0 -179 -144 -179q-62 0 -95.5 46.5t-33.5 132.5v235h-92v-280q0 -42 13 -81.5t40 -71t69 -49.5t98 -18q111 0 174 62t63 158zM398 596l-51 50h-8l-50 -50l50 -50h8zM232 596l-51 50h-8l-50 -50l50 -50h8z" />
<glyph unicode="&#xfd;" horiz-adv-x="427" d="M415 679h-115l-130 -112h90zM416 486h-107l-100 -162l-90 162h-106l147 -261v-225h95v230z" />
<glyph unicode="&#xff;" horiz-adv-x="427" d="M353 617l-51 51h-8l-50 -51l50 -50h8zM186 617l-50 51h-8l-51 -51l51 -50h8zM416 486h-107l-100 -162l-90 162h-106l147 -261v-225h95v230z" />
<glyph unicode="&#x152;" horiz-adv-x="1340" d="M1299 89h-318v206h230v90h-230v172h299v89h-398v-646h417v89zM759 327q0 71 -27 134.5t-75.5 112t-113 75.5t-137.5 27t-137.5 -27t-113 -75.5t-75.5 -112t-27 -134.5t27 -135t75.5 -112t113 -75t137.5 -27t137.5 27t113 75t75.5 112t27 135zM653 328q0 -51 -19.5 -96.5 t-53.5 -80.5t-79 -54.5t-94 -19.5t-94 19.5t-79 54.5t-53.5 80.5t-19.5 96.5t20 96.5t55 80t80.5 53.5t94.5 19t93 -19t78 -53.5t52.5 -80t18.5 -96.5z" />
<glyph unicode="&#x153;" horiz-adv-x="1016" d="M986 0v80h-238v134h172v81h-172v109h224v82h-316v-486h330zM581 245q0 53 -21 101t-58.5 84t-87.5 56.5t-107 20.5t-107 -20.5t-87.5 -56.5t-58.5 -84t-21 -101t21 -101t58.5 -84t87.5 -56.5t107 -20.5t107 20.5t87.5 56.5t58.5 84t21 101zM483 246q0 -36 -14 -68 t-38.5 -56t-56.5 -37.5t-67 -13.5q-34 0 -66 13.5t-56.5 38t-38.5 56.5t-14 67t14.5 67t39.5 56t57 37.5t67 13.5t66.5 -13t55.5 -37.5t37.5 -56t13.5 -67.5z" />
<glyph unicode="&#x178;" horiz-adv-x="564" d="M419 786l-51 51h-8l-50 -51l50 -50h8zM252 786l-50 51h-8l-51 -51l51 -50h8zM530 646h-115l-141 -235l-126 235h-115l188 -344v-302h103v309z" />
<glyph unicode="&#x2c6;" horiz-adv-x="355" d="M349 534l-111 112h-123l-108 -112h68l102 76l102 -76h70z" />
<glyph unicode="&#x2000;" horiz-adv-x="658" />
<glyph unicode="&#x2001;" horiz-adv-x="1317" />
<glyph unicode="&#x2002;" horiz-adv-x="658" />
<glyph unicode="&#x2003;" horiz-adv-x="1317" />
<glyph unicode="&#x2004;" horiz-adv-x="439" />
<glyph unicode="&#x2005;" horiz-adv-x="329" />
<glyph unicode="&#x2006;" horiz-adv-x="219" />
<glyph unicode="&#x2007;" horiz-adv-x="219" />
<glyph unicode="&#x2008;" horiz-adv-x="164" />
<glyph unicode="&#x2009;" horiz-adv-x="263" />
<glyph unicode="&#x200a;" horiz-adv-x="73" />
<glyph unicode="&#x2010;" horiz-adv-x="406" d="M318 212v83h-232v-83h232z" />
<glyph unicode="&#x2011;" horiz-adv-x="406" d="M318 212v83h-232v-83h232z" />
<glyph unicode="&#x2013;" horiz-adv-x="375" d="M349 212v83h-328v-83h328z" />
<glyph unicode="&#x2014;" horiz-adv-x="528" d="M507 212v83h-489v-83h489z" />
<glyph unicode="&#x2018;" horiz-adv-x="194" d="M180 646h-76l-107 -171h101z" />
<glyph unicode="&#x2019;" horiz-adv-x="194" d="M180 646h-100l-83 -171h77z" />
<glyph unicode="&#x201a;" horiz-adv-x="520" d="M472 220q0 94 -57.5 157t-155.5 63q-48 0 -87 -17t-67 -47.5t-42.5 -70.5t-14.5 -85t14.5 -84.5t42.5 -70t67 -47.5t87 -17t88 17t68 47t42.5 70t14.5 85zM374 221q0 -65 -31 -102.5t-81 -37.5t-81 37.5t-31 102.5q0 64 32 101.5t80 37.5t80 -37.5t32 -101.5z" />
<glyph unicode="&#x201c;" horiz-adv-x="332" d="M321 646h-76l-107 -171h100zM180 646h-76l-107 -171h101z" />
<glyph unicode="&#x201d;" horiz-adv-x="332" d="M321 646h-101l-82 -171h76zM180 646h-100l-83 -171h77z" />
<glyph unicode="&#x2022;" horiz-adv-x="259" d="M242 357l-109 107h-7l-109 -107l109 -108h7z" />
<glyph unicode="&#x2026;" horiz-adv-x="741" d="M689 34l-72 72h-8l-72 -72l72 -71h8zM442 34l-72 72h-8l-72 -72l72 -71h8zM195 34l-72 72h-8l-72 -72l72 -71h8z" />
<glyph unicode="&#x202f;" horiz-adv-x="263" />
<glyph unicode="&#x2039;" horiz-adv-x="485" d="M449 442h-415v-88h257l-132 -232q39 0 69 -6t53 -21.5t36 -42.5t13 -68t-31.5 -70t-71.5 -29q-42 0 -75.5 24t-55.5 69h-8l-63 -68q3 -18 20.5 -39t45 -39.5t61 -30.5t66.5 -12q44 0 84.5 14.5t71 41.5t47.5 63t17 78q0 71 -37 129t-94 74z" />
<glyph unicode="&#x203a;" horiz-adv-x="575" d="M552 0v89h-150v378h-8l-400 -467h309v-223l99 43v180h150zM301 89h-115l115 133v-133z" />
<glyph unicode="&#x205f;" horiz-adv-x="329" />
<glyph unicode="&#x2122;" horiz-adv-x="1355" d="M1288 646h-98l-230 -267l-219 267h-92v-646h100v491l212 -261h8l219 262v-492h100v646zM541 557v89h-501v-89h197v-557h99v557h205z" />
</font>
</defs>
</svg>
